<svg xmlns="http://www.w3.org/2000/svg" width="283.862" height="288.88" viewBox="0 0 283.862 288.88">
  <g id="statistics" transform="translate(0.04 2.549)">
    <path id="Caminho_1" data-name="Caminho 1" d="M171.484,134.682h-47a9.5,9.5,0,0,0-9.5,9.5v130a9.5,9.5,0,0,0,9.5,9.5h47a9.5,9.5,0,0,0,9.5-9.5v-130A9.5,9.5,0,0,0,171.484,134.682Z" fill="#41b883" stroke="#35495e" stroke-width="5"/>
    <path id="Caminho_2" data-name="Caminho 2" d="M271.822,69.682h-47a9.5,9.5,0,0,0-9.5,9.5v195a9.5,9.5,0,0,0,9.5,9.5h47a9.5,9.5,0,0,0,9.5-9.5v-195A9.5,9.5,0,0,0,271.822,69.682Z" fill="#41b883" stroke="#35495e" stroke-width="5"/>
    <path id="Caminho_3" data-name="Caminho 3" d="M71.145,176.831h-47a9.5,9.5,0,0,0-9.5,9.5v88a9.5,9.5,0,0,0,9.5,9.5h47a9.5,9.5,0,0,0,9.5-9.5v-88A9.5,9.5,0,0,0,71.145,176.831Z" fill="#41b883" stroke="#35495e" stroke-width="5"/>
    <path id="Caminho_4" data-name="Caminho 4" d="M193.391,18.189,158.163,1.456a15,15,0,1,0-12.871,27.1l2.864,1.361L12.483,78.206a15,15,0,1,0,10.06,28.264L157.705,58.36l-1.031,2.17a15,15,0,1,0,27.1,12.871L200.5,38.173A15,15,0,0,0,193.391,18.189Z" fill="#41b883" stroke="#35495e" stroke-width="5"/>
  </g>
</svg>
